<?xml version="1.0" standalone="no"?>
<!DOCTYPE svg PUBLIC "-//W3C//DTD SVG 20010904//EN"
 "http://www.w3.org/TR/2001/REC-SVG-20010904/DTD/svg10.dtd">
<svg version="1.0" xmlns="http://www.w3.org/2000/svg"
 width="260.000000pt" height="496.000000pt" viewBox="0 0 260.000000 496.000000"
 preserveAspectRatio="xMidYMid meet">

<g transform="translate(0.000000,496.000000) scale(0.100000,-0.100000)"
fill="#000000" stroke="none">
<path d="M1369 4771 c-33 -11 -68 -30 -97 -52 l-22 -17 51 -61 c49 -59 51 -60
74 -45 13 8 38 14 57 12 26 -2 34 -8 36 -27 3 -18 -10 -38 -51 -80 -63 -65
-77 -88 -77 -130 l0 -31 85 0 c80 0 85 1 85 22 0 13 23 43 60 79 33 32 67 74
75 93 34 82 3 172 -74 215 -47 26 -154 38 -202 22z"/>
<path d="M1350 4205 l0 -75 75 0 75 0 0 75 0 75 -75 0 -75 0 0 -75z"/>
<path d="M1281 4019 c-77 -13 -184 -52 -249 -91 -31 -18 -93 -69 -137 -113
-137 -136 -205 -300 -206 -490 0 -170 48 -312 150 -447 l50 -65 -46 -44 c-73
-70 -163 -197 -209 -295 -65 -135 -88 -241 -89 -399 0 -123 1 -133 28 -185 16
-30 37 -64 46 -75 16 -17 19 -47 24 -210 13 -388 89 -777 197 -1000 50 -104
96 -156 161 -185 75 -32 132 -24 175 23 46 49 54 91 54 265 l0 152 28 -6 c104
-25 199 -131 258 -288 39 -105 61 -136 111 -158 80 -35 163 -7 213 72 132 209
213 684 189 1109 -8 140 -38 406 -54 477 -3 15 8 37 34 70 74 95 101 173 101
301 0 149 -32 245 -118 352 -29 35 -52 67 -52 71 0 4 8 18 19 31 170 217 191
538 50 787 -46 80 -179 210 -264 258 -132 73 -326 108 -464 83z m299 -161
c289 -106 441 -415 350 -710 -60 -194 -259 -361 -459 -385 l-46 -5 -47 60
c-94 121 -238 163 -313 92 l-24 -22 -25 20 c-42 32 -102 110 -130 167 -53 110
-70 246 -45 367 42 201 218 380 425 433 85 21 230 14 314 -17z m-362 -1084
c12 -8 81 -89 153 -179 131 -165 160 -195 190 -195 53 0 229 165 274 258 17
34 33 62 38 62 16 0 66 -93 82 -155 13 -45 16 -87 13 -143 -4 -68 -9 -87 -36
-130 -44 -68 -142 -159 -199 -184 -101 -45 -247 -33 -343 27 -125 79 -215 264
-241 500 -16 141 5 184 69 139z m-268 -155 c0 -29 46 -254 55 -268 7 -12 -77
-77 -137 -105 -71 -34 -92 -72 -61 -114 11 -15 31 -29 44 -32 28 -7 134 5 201
22 l48 12 77 -81 c43 -44 93 -88 111 -97 38 -19 35 -29 -16 -55 -140 -71 -402
-106 -475 -64 -41 24 -93 93 -107 141 -25 91 -2 264 54 401 42 105 174 289
197 275 5 -3 9 -18 9 -35z m656 -4 c-37 -33 -40 -34 -58 -18 -26 23 -23 29 25
40 69 17 74 14 33 -22z m242 -702 c37 -247 40 -658 7 -868 -40 -258 -126 -505
-176 -505 -10 0 -13 6 -52 108 -55 140 -158 270 -250 314 -105 52 -235 65
-275 28 -21 -20 -22 -28 -22 -218 0 -108 -5 -204 -10 -212 -16 -26 -62 20
-106 108 -91 179 -167 551 -181 882 l-6 145 129 0 c132 0 178 8 319 52 95 29
164 66 262 139 71 53 74 54 140 54 45 1 90 9 133 24 36 13 68 24 71 25 3 0 11
-34 17 -76z"/>
</g>
</svg>
